<svg width="58" height="58" viewBox="0 0 58 58" fill="none" xmlns="http://www.w3.org/2000/svg">
<path d="M0.5 29C0.5 13.2596 13.2601 0.5 29 0.5C44.7399 0.5 57.5 13.2596 57.5 29C57.5 44.7399 44.7399 57.5 29 57.5C13.2601 57.5 0.5 44.7399 0.5 29Z" stroke="#9EA9B5"/>
<path d="M14.8479 42.8566H21.5383V22.7296H14.8479V42.8566ZM18.237 13.0278C15.9475 13.0278 14.4502 14.5304 14.4502 16.5047C14.4502 18.4372 15.9046 19.9831 18.1492 19.9831H18.1925C20.527 19.9831 21.9782 18.4372 21.9782 16.5047C21.9338 14.5304 20.527 13.0278 18.237 13.0278ZM45.6657 31.3144V42.8566H38.9738V32.0886C38.9738 29.3839 38.0075 27.5376 35.5848 27.5376C33.7358 27.5376 32.6373 28.781 32.1523 29.9847C31.9762 30.4147 31.9307 31.0124 31.9307 31.6158V42.8566H25.2383C25.2383 42.8566 25.3282 24.6182 25.2383 22.7296H31.9307V25.5818L31.8863 25.6479H31.9307V25.5818C32.8203 24.2131 34.4064 22.2573 37.9615 22.2573C42.365 22.2573 45.6657 25.1333 45.6657 31.3144Z" fill="black"/>
</svg>
