<svg width="58" height="58" viewBox="0 0 58 58" fill="none" xmlns="http://www.w3.org/2000/svg">
<path d="M39.2667 16.6472C38.0223 16.6472 37.0137 17.6559 37.0137 18.8996C37.0137 20.144 38.0223 21.1527 39.2667 21.1527C40.5103 21.1527 41.519 20.144 41.519 18.8996C41.519 17.6559 40.5103 16.6472 39.2667 16.6472Z" fill="black"/>
<path d="M57.5 29C57.5 44.7405 44.74 57.5 29.0004 57.5C13.2601 57.5 0.5 44.7405 0.5 29C0.5 13.2596 13.2601 0.5 29.0004 0.5C44.74 0.5 57.5 13.2596 57.5 29Z" stroke="#9EA9B5"/>
<path d="M29.2495 35.0623C25.9068 35.0623 23.1874 32.3429 23.1874 29.0001C23.1874 25.6574 25.9068 22.9379 29.2495 22.9379C32.5929 22.9379 35.3116 25.6574 35.3116 29.0001C35.3116 32.3429 32.5929 35.0623 29.2495 35.0623ZM29.2495 19.5359C24.0312 19.5359 19.7861 23.7818 19.7861 29.0001C19.7861 34.2185 24.0312 38.4643 29.2495 38.4643C34.4678 38.4643 38.7136 34.2185 38.7136 29.0001C38.7136 23.7818 34.4678 19.5359 29.2495 19.5359Z" fill="black"/>
<path d="M21.4209 13.4006C17.0493 13.4006 13.4933 16.9566 13.4933 21.3283V36.6718C13.4933 41.0434 17.0493 44.5994 21.4209 44.5994H36.7634C41.135 44.5994 44.6918 41.0434 44.6918 36.6718V21.3283C44.6918 16.9566 41.135 13.4006 36.7634 13.4006H21.4209ZM36.7634 48.2147H21.4209C15.0565 48.2147 9.87793 43.0369 9.87793 36.6718V21.3283C9.87793 14.9632 15.0565 9.78528 21.4209 9.78528H36.7634C43.1285 9.78528 48.3071 14.9632 48.3071 21.3283V36.6718C48.3071 43.0369 43.1285 48.2147 36.7634 48.2147Z" fill="black"/>
</svg>
