<svg width="58" height="58" viewBox="0 0 58 58" fill="none" xmlns="http://www.w3.org/2000/svg">
<path d="M0.5 29C0.5 13.2599 13.2599 0.5 29 0.5C44.7401 0.5 57.5 13.2599 57.5 29C57.5 44.7401 44.7401 57.5 29 57.5C13.2599 57.5 0.5 44.7401 0.5 29Z" stroke="#9EA9B5"/>
<path d="M28.1314 23.5715L28.1923 24.5749L27.178 24.4521C23.4862 23.981 20.2609 22.3837 17.5224 19.7009L16.1836 18.3698L15.8388 19.3528C15.1085 21.5441 15.5751 23.8581 17.0965 25.4146C17.9078 26.2747 17.7253 26.3976 16.3257 25.8856C15.8388 25.7217 15.4128 25.5989 15.3723 25.6603C15.2303 25.8036 15.7171 27.6672 16.1025 28.4045C16.6299 29.4284 17.705 30.4319 18.8816 31.0258L19.8755 31.4968L18.699 31.5173C17.563 31.5173 17.5224 31.5378 17.6442 31.9678C18.0498 33.2989 19.6524 34.712 21.4374 35.3264L22.6951 35.7564L21.5997 36.4117C19.9769 37.3538 18.0701 37.8862 16.1634 37.9271C15.2505 37.9476 14.5 38.0296 14.5 38.091C14.5 38.2958 16.9747 39.4426 18.415 39.8931C22.7357 41.2243 27.8677 40.6508 31.7219 38.3777C34.4604 36.7598 37.1988 33.5447 38.4767 30.4319C39.1664 28.7731 39.8561 25.7422 39.8561 24.2882C39.8561 23.3462 39.917 23.2233 41.0529 22.097C41.7224 21.4416 42.3512 20.7249 42.4729 20.5201C42.6757 20.131 42.6555 20.131 41.6209 20.4791C39.8967 21.0935 39.6533 21.0116 40.5052 20.0901C41.1341 19.4347 41.8846 18.2469 41.8846 17.8988C41.8846 17.8374 41.5804 17.9398 41.2355 18.1241C40.8704 18.3289 40.059 18.6361 39.4504 18.8204L38.3551 19.1685L37.3611 18.4927C36.8134 18.1241 36.0426 17.7145 35.6369 17.5917C34.6023 17.3049 33.0201 17.3459 32.087 17.6735C29.5514 18.5951 27.9489 20.9706 28.1314 23.5715Z" fill="black"/>
</svg>
